<?xml version="1.0" encoding="utf-8"?>
<!-- Generator: Adobe Illustrator 16.0.0, SVG Export Plug-In . SVG Version: 6.00 Build 0)  -->
<!DOCTYPE svg PUBLIC "-//W3C//DTD SVG 1.1//EN" "http://www.w3.org/Graphics/SVG/1.1/DTD/svg11.dtd">
<svg version="1.1" id="Layer_1" xmlns="http://www.w3.org/2000/svg" xmlns:xlink="http://www.w3.org/1999/xlink" x="0px" y="0px"
	 width="512px" height="512px" viewBox="0 0 512 512" enable-background="new 0 0 512 512" xml:space="preserve">
<g>
	<g>
		<path fill-rule="evenodd" clip-rule="evenodd" fill="#FFFFFF" stroke="#000000" stroke-width="5" d="M240.168,237.072
			c-0.494-0.065-1.039-0.018-1.475-0.214c-6.996-3.158-13.199-7.556-13.313-15.871c-0.107-7.884,5.597-12.582,12.283-15.548
			c12.989-5.761,26.153-5.755,39.091,0.202c6.496,2.991,11.89,7.661,11.902,15.308c0.012,7.458-5.441,11.766-11.623,14.94
			c-1.76,0.903-3.65,1.582-5.531,2.219c-7.057,2.388-7.064,2.365-6.253,10.96c60.872,4.376,110.164,30.766,146.58,80.041
			c23.454,31.735,35.403,67.7,36.82,107.469c-127.68,0-255.229,0-383.347,0c2.066-50.134,20.197-93.384,55.095-129.255
			c35.005-35.98,77.966-55.182,128.398-58.066c0-3.067,0-5.826,0-8.84c-2.809-1.111-5.791-2.292-8.775-3.474
			c2.697-0.001,5.397-0.001,8.805-0.001c-4.127-4.554-10.254-8.23-6.354-14.173c2.739-4.174,8.008-6.687,12.088-9.895
			c-1.134,0-2.634-0.16-4.089,0.027c-6.938,0.895-13.733,2.725-16.688,9.756c-2.602,6.193,2.494,9.995,6.139,13.983
			C240.029,236.762,240.087,236.928,240.168,237.072z M88.611,412.554c1.096,0.282,1.571,0.508,2.049,0.511
			c6.332,0.038,12.667-0.072,18.995,0.112c2.903,0.084,3.888-1.007,4.585-3.82c15.19-61.271,49.956-107.558,105.748-137.674
			c0.575-0.311,1.012-0.876,1.514-1.323c-29.318,5.737-54.347,19.379-75.52,40.043C116.885,338.799,99.104,373.549,88.611,412.554z
			 M223.941,285.902c-16.803,4.781-41.478,23.896-56.604,43.391c-19.238,24.795-31.064,52.998-38.652,83.832
			c4.19,0,7.701-0.299,11.138,0.076c4.284,0.467,6.039-1.193,7.15-5.321c5.723-21.271,14.215-41.438,25.172-60.547
			C185.432,324.16,201.751,303.491,223.941,285.902z"/>
		<path class="base-line" fill-rule="evenodd" clip-rule="evenodd" fill="#FFFFFF" stroke="#000000" stroke-width="5" d="M504.898,454.578
			c-2.239,2.008-4.223,4.455-6.766,5.946c-9.021,5.288-18.748,8.42-29.34,8.354c-2.166-0.014-4.35,0.172-6.496-0.034
			c-8.023-0.77-14.013-0.182-17.796,9.439c-3.799,9.661-13.036,15.842-22.583,20.278c-3.196,1.485-7.037,2.217-10.585,2.221
			c-102.817,0.114-205.636,0.239-308.452-0.063c-16.07-0.047-27.14-9.867-36.734-23.369c58.855,0,116.541,0,174.601,0
			c0-2.913,0-5.316,0-8.477c-1.968,0-4.062,0-6.154,0c-63.49,0.001-126.98,0.03-190.471-0.027
			c-10.385-0.01-19.957-3.255-28.747-8.628c-2.378-1.454-4.196-3.824-6.271-5.774c0.234-0.34,0.468-0.681,0.702-1.021
			c164.711,0,329.422,0,494.133,0C504.26,453.808,504.579,454.192,504.898,454.578z"/>
		<path fill-rule="evenodd" clip-rule="evenodd" fill="#FFFFFF" stroke="#000000" stroke-width="3" d="M146.441,208.448
			c1.304-1.702,2.483-3.519,3.93-5.089c15.739-17.093,16.642-36.214,8.352-56.931c-3.859-9.643-8.101-19.407-9.938-29.522
			c-3.255-17.925,2.644-33.625,16.014-46.392c-0.453,1.093-0.845,2.217-1.368,3.275c-9.415,19.026-8.724,37.771,1.773,56.12
			c5.107,8.929,10.52,17.604,11.847,28.187c1.564,12.466-1.629,23.612-9.556,32.959c-5.823,6.866-12.93,12.643-19.465,18.905
			C147.5,209.457,146.971,208.952,146.441,208.448z"/>
		<path fill-rule="evenodd" clip-rule="evenodd" fill="#FFFFFF" stroke="#000000" stroke-width="3" d="M260.689,22.544
			c-4.452,8.999-7.507,18.182-7.792,28.158c-0.313,10.928,2.667,20.966,7.852,30.479c3.333,6.114,7.124,12.077,9.618,18.53
			c5.75,14.877,3.653,29.048-5.685,42.02c-5.795,8.051-13.163,14.368-22.315,18.837c1.221-1.624,2.303-3.376,3.681-4.853
			c15.508-16.614,17.358-35.41,9.168-55.921c-3.315-8.303-7.123-16.503-9.45-25.09C240.542,55.421,247.065,33.418,260.689,22.544z"
			/>
		<path fill-rule="evenodd" clip-rule="evenodd" fill="#FFFFFF" stroke="#000000" stroke-width="3" d="M348.627,69.52
			c-2.454,7.336-5.154,13.585-6.605,20.11c-3.384,15.226,0.32,29.312,8.344,42.393c4.972,8.106,9.416,16.34,10.673,26.019
			c1.77,13.642-2.638,25.224-11.271,35.442c-5.347,6.329-11.607,11.618-19.4,15.06c1.279-1.68,2.429-3.479,3.856-5.02
			c15.131-16.332,17.057-34.777,9.292-55.045c-3.959-10.332-8.604-20.646-10.669-31.403C329.405,99.147,335.366,83.41,348.627,69.52
			z"/>
		<path fill-rule="evenodd" clip-rule="evenodd" fill="#FFFFFF" d="M88.611,412.554c10.493-39.005,28.274-73.755,57.371-102.151
			c21.173-20.664,46.201-34.306,75.52-40.043c-0.502,0.447-0.938,1.013-1.514,1.323c-55.792,30.116-90.558,76.402-105.748,137.674
			c-0.697,2.813-1.682,3.904-4.585,3.82c-6.327-0.185-12.663-0.074-18.995-0.112C90.182,413.062,89.707,412.836,88.611,412.554z"/>
		<path fill-rule="evenodd" clip-rule="evenodd" fill="#FFFFFF" d="M223.941,285.902c-22.19,17.589-38.51,38.258-51.796,61.431
			c-10.957,19.108-19.449,39.276-25.172,60.547c-1.111,4.128-2.866,5.788-7.15,5.321c-3.437-0.375-6.947-0.076-11.138-0.076
			c7.587-30.834,19.414-59.037,38.652-83.832C182.464,309.799,207.139,290.684,223.941,285.902z"/>
		<path fill-rule="evenodd" clip-rule="evenodd" fill="#FFFFFF" d="M240.168,237.072c-0.081-0.145-0.139-0.311-0.247-0.431
			c-3.645-3.988-8.74-7.79-6.139-13.983c2.954-7.031,9.75-8.861,16.688-9.756c1.455-0.188,2.955-0.027,4.089-0.027
			c-4.08,3.208-9.349,5.721-12.088,9.895c-3.9,5.942,2.227,9.619,6.354,14.173c-3.407,0-6.107,0-8.805,0.001
			C240.021,236.944,240.168,237.072,240.168,237.072z"/>
	</g>
</g>
</svg>
